<svg width="40.000000" height="40.000000" viewBox="0 0 40 40" fill="none" xmlns="http://www.w3.org/2000/svg" xmlns:xlink="http://www.w3.org/1999/xlink">
	<desc>
			Created with Pixso.
	</desc>
	<defs/>
	<path id="Background" d="M40 20C40 31.04 31.04 40 20 40C8.95 40 0 31.04 0 20C0 8.95 8.95 0 20 0C31.04 0 40 8.95 40 20Z" fill="#FFFFFF" fill-opacity="1.000000" fill-rule="evenodd"/>
	<path id="Telegram" d="M9.17 19.65C14.98 17.12 18.86 15.45 20.8 14.64C26.34 12.34 27.5 11.94 28.24 11.92C28.52 11.92 28.79 12 29.02 12.15C29.18 12.29 29.28 12.48 29.3 12.69C29.34 12.95 29.35 13.22 29.34 13.48C29.04 16.64 27.74 24.29 27.08 27.82C26.8 29.31 26.25 29.82 25.71 29.87C24.55 29.97 23.67 29.1 22.55 28.37C20.79 27.21 19.8 26.51 18.1 25.37C16.13 24.07 17.4 23.36 18.53 22.2C18.82 21.89 23.92 17.25 24.02 16.83C24.04 16.77 24.03 16.7 24.02 16.64C24 16.58 23.97 16.52 23.93 16.48C23.87 16.44 23.8 16.41 23.73 16.41C23.66 16.4 23.58 16.41 23.52 16.44C23.34 16.48 20.54 18.33 15.1 22C14.31 22.54 13.59 22.81 12.94 22.8C12.23 22.78 10.86 22.39 9.84 22.05C8.59 21.65 7.61 21.43 7.68 20.75C7.73 20.39 8.22 20.03 9.17 19.65Z" fill="#111111" fill-opacity="1.000000" fill-rule="evenodd"/>
</svg>
