<svg width="40.000000" height="40.000000" viewBox="0 0 40 40" fill="none" xmlns="http://www.w3.org/2000/svg" xmlns:xlink="http://www.w3.org/1999/xlink">
	<desc>
			Created with Pixso.
	</desc>
	<defs/>
	<path id="Background" d="M40 20C40 31.04 31.04 40 20 40C8.95 40 0 31.04 0 20C0 8.95 8.95 0 20 0C31.04 0 40 8.95 40 20Z" fill="#FFFFFF" fill-opacity="1.000000" fill-rule="evenodd"/>
	<path id="VK" d="M20.73 27.37C12.97 27.37 8.55 22.05 8.37 13.2L12.25 13.2C12.38 19.7 15.24 22.45 17.51 23.02L17.51 13.2L21.17 13.2L21.17 18.8C23.4 18.56 25.76 16.01 26.55 13.2L30.21 13.2C29.6 16.66 27.05 19.22 25.24 20.26C26.66 20.97 27.91 21.97 28.91 23.19C29.92 24.42 30.65 25.84 31.06 27.37L27.04 27.37C26.17 24.68 24.02 22.59 21.17 22.31L21.17 27.37L20.73 27.37Z" fill="#111111" fill-opacity="1.000000" fill-rule="nonzero"/>
</svg>
