<svg width="40.000000" height="40.000000" viewBox="0 0 40 40" fill="none" xmlns="http://www.w3.org/2000/svg" xmlns:xlink="http://www.w3.org/1999/xlink">
	<desc>
			Created with Pixso.
	</desc>
	<defs/>
	<path id="Background" d="M40 20C40 31.04 31.04 40 20 40C8.95 40 0 31.04 0 20C0 8.95 8.95 0 20 0C31.04 0 40 8.95 40 20Z" fill="#FFFFFF" fill-opacity="1.000000" fill-rule="evenodd"/>
	<path id="YouTube" d="M29.86 14.91C29.74 14.47 29.51 14.07 29.19 13.75C28.87 13.43 28.47 13.2 28.03 13.08C26.41 12.65 19.93 12.65 19.93 12.65C19.93 12.65 13.45 12.65 11.83 13.08C11.39 13.2 10.99 13.43 10.67 13.75C10.35 14.07 10.12 14.47 10 14.91C9.56 16.53 9.56 19.9 9.56 19.9C9.56 19.9 9.56 23.27 10 24.89C10.12 25.33 10.35 25.73 10.67 26.05C10.99 26.37 11.39 26.6 11.83 26.72C13.45 27.16 19.93 27.16 19.93 27.16C19.93 27.16 26.41 27.16 28.03 26.72C28.47 26.61 28.87 26.37 29.19 26.05C29.51 25.73 29.74 25.33 29.86 24.89C30.29 23.27 30.29 19.9 30.29 19.9C30.29 19.9 30.29 16.53 29.86 14.91ZM17.86 23.01L17.86 16.79L23.25 19.9L17.86 23.01Z" fill="#111111" fill-opacity="1.000000" fill-rule="nonzero"/>
</svg>
