<svg width="78.999512" height="56.000488" viewBox="0 0 78.9995 56.0005" fill="none" xmlns="http://www.w3.org/2000/svg" xmlns:xlink="http://www.w3.org/1999/xlink">
	<desc>
			Created with Pixso.
	</desc>
	<defs/>
	<path id="Vector 36" d="M30.27 44.95L52.41 44.95L52.41 1.48L1.48 1.48L1.48 44.95L11.81 44.95" stroke="#C5358C" stroke-opacity="1.000000" stroke-width="2.972973" stroke-linejoin="round" stroke-linecap="round"/>
	<path id="Vector 38" d="M36.91 16.21L36.91 1.48L17.72 1.48L17.72 16.21L27.32 11.06L36.91 16.21Z" stroke="#C5358C" stroke-opacity="1.000000" stroke-width="2.972973" stroke-linejoin="round"/>
	<path id="Vector 37" d="M52.41 10.32L66.44 10.32L71.6 25.79M73.82 45.68L77.51 45.68L77.51 25.79L71.6 25.79L52.41 25.79L52.41 44.95L56.1 44.95" stroke="#C5358C" stroke-opacity="1.000000" stroke-width="2.972973" stroke-linejoin="round" stroke-linecap="round"/>
	<path id="Vector 36" d="M32.48 26.53L42.82 26.53" stroke="#C5358C" stroke-opacity="1.000000" stroke-width="2.972973" stroke-linejoin="round" stroke-linecap="round"/>
	<path id="Vector 37" d="M35.44 35.37L42.82 35.37" stroke="#C5358C" stroke-opacity="1.000000" stroke-width="2.972973" stroke-linejoin="round" stroke-linecap="round"/>
	<ellipse id="Ellipse 21" cx="20.677246" cy="45.687012" rx="10.333658" ry="10.313427" fill="#D9D9D9" fill-opacity="0"/>
	<ellipse id="Ellipse 21" cx="20.677246" cy="45.687012" rx="8.848659" ry="8.828427" stroke="#C5358C" stroke-opacity="1.000000" stroke-width="2.970000"/>
	<ellipse id="Ellipse 22" cx="64.964844" cy="45.687012" rx="10.333658" ry="10.313427" fill="#D9D9D9" fill-opacity="0"/>
	<ellipse id="Ellipse 22" cx="64.964844" cy="45.687012" rx="8.848659" ry="8.828427" stroke="#C5358C" stroke-opacity="1.000000" stroke-width="2.970000"/>
</svg>
