<svg width="48.000000" height="48.000000" viewBox="0 0 48 48" fill="none" xmlns="http://www.w3.org/2000/svg" xmlns:xlink="http://www.w3.org/1999/xlink">
	<desc>
			Created with Pixso.
	</desc>
	<defs>
		<clipPath id="clip7_4085">
			<rect id="Stroke 2/shopping-bag" rx="0.000000" width="35.000000" height="35.000000" transform="translate(6.500000 6.500000)" fill="white" fill-opacity="0"/>
		</clipPath>
	</defs>
	<rect id="корзина (хедер)" rx="0.000000" width="35.000000" height="35.000000" transform="translate(6.500000 6.500000)" fill="#FFFFFF" fill-opacity="0"/>
	<rect id="Stroke 2/shopping-bag" rx="0.000000" width="35.000000" height="35.000000" transform="translate(6.500000 6.500000)" fill="#FFFFFF" fill-opacity="0"/>
	<g clip-path="url(#clip7_4085)">
		<path id="Vector" d="M13.5 16.5L34.5 16.5C36.15 16.5 37.5 17.84 37.5 19.5L37.5 36C37.5 37.65 36.15 39 34.5 39L13.5 39C11.84 39 10.5 37.65 10.5 36L10.5 19.5C10.5 17.84 11.84 16.5 13.5 16.5Z" stroke="#FFFFFF" stroke-opacity="1.000000" stroke-width="2.000000" stroke-linejoin="round"/>
		<path id="Vector" d="M18 21L18 15C18 11.68 20.68 9 24 9C27.31 9 30 11.68 30 15L30 20.53" stroke="#FFFFFF" stroke-opacity="1.000000" stroke-width="2.000000" stroke-linejoin="round" stroke-linecap="round"/>
	</g>
</svg>
