<svg width="52.000000" height="77.000000" viewBox="0 0 52 77" fill="none" xmlns="http://www.w3.org/2000/svg" xmlns:xlink="http://www.w3.org/1999/xlink">
	<desc>
			Created with Pixso.
	</desc>
	<defs/>
	<path id="Vector" d="M22.25 15L25.33 22.49L21.47 24.74C23.13 27.99 25.83 30.63 29.18 32.23L31.5 28.48L39.2 31.48L39.2 37.48C39.2 38.27 38.88 39.04 38.3 39.6C37.72 40.16 36.94 40.48 36.12 40.48C30.11 40.12 24.43 37.64 20.17 33.5C15.91 29.35 13.36 23.84 13 17.99C13 17.2 13.32 16.44 13.9 15.87C14.48 15.31 15.26 15 16.08 15L22.25 15Z" stroke="#C5358C" stroke-opacity="1.000000" stroke-width="3.000000" stroke-linejoin="round"/>
	<path id="Vector 50" d="M50.5 75.5L1.5 75.5L1.5 1.5L26 1.5L50.5 1.5L50.5 75.5ZM1.68 57.37L50.5 57.37M19.96 67.36L30.2 67.36" stroke="#C5358C" stroke-opacity="1.000000" stroke-width="3.000000" stroke-linejoin="round" stroke-linecap="round"/>
</svg>
