<svg width="79.000000" height="54.000000" viewBox="0 0 79 54" fill="none" xmlns="http://www.w3.org/2000/svg" xmlns:xlink="http://www.w3.org/1999/xlink">
	<desc>
			Created with Pixso.
	</desc>
	<defs/>
	<g opacity="0.900000">
		<path id="Vector 51" d="M77.5 52.5L32.29 52.5L1.5 52.5L1.5 1.5L32.29 1.5L77.5 1.5L77.5 52.5ZM32.29 1.5L32.29 52.5M9.12 26.85L23.82 26.85M9.12 38.22L23.82 38.22M9.12 15.11L23.82 15.11M62.52 11.92L47.91 40.57M63.45 41.41C60.01 41.41 57.22 38.55 57.22 35.03C57.22 31.5 60.01 28.64 63.45 28.64C66.89 28.64 69.68 31.5 69.68 35.03C69.68 38.55 66.89 41.41 63.45 41.41ZM46.7 24.13C43.26 24.13 40.47 21.27 40.47 17.74C40.47 14.22 43.26 11.36 46.7 11.36C50.15 11.36 52.94 14.22 52.94 17.74C52.94 21.27 50.15 24.13 46.7 24.13Z" stroke="#C5358C" stroke-opacity="1.000000" stroke-width="3.000000" stroke-linejoin="round" stroke-linecap="round"/>
	</g>
</svg>
