<svg width="77.000000" height="79.000000" viewBox="0 0 77 79" fill="none" xmlns="http://www.w3.org/2000/svg" xmlns:xlink="http://www.w3.org/1999/xlink">
	<desc>
			Created with Pixso.
	</desc>
	<defs/>
	<path id="Vector 52" d="M1.5 35.9L1.5 77.5L59.07 77.5L59.07 45.84L42.83 35.9L41.54 35.9L1.5 35.9ZM59.07 45.84L75.5 37.3L75.5 8.86C75.5 8.86 73.13 7.19 71.85 5.6C70.62 4.07 69.41 1.5 69.41 1.5L48.78 1.5C48.78 1.5 48.16 4.06 46.96 5.6C45.71 7.21 42.83 8.86 42.83 8.86L42.83 35.9M54.46 22.57L57.78 25.55L64.98 19.49M21.15 43.92L21.15 55.11L9.89 55.11L9.89 43.92L21.15 43.92ZM14.69 64.07L14.69 68.54L8.78 68.54L8.78 64.07L14.69 64.07ZM51.78 64.07L51.78 68.54L45.88 68.54L45.88 64.07L51.78 64.07ZM39.42 64.07L39.42 68.54L33.51 68.54L33.51 64.07L39.42 64.07ZM27.05 64.07L27.05 68.54L21.15 68.54L21.15 64.07L27.05 64.07Z" stroke="#C5358C" stroke-opacity="1.000000" stroke-width="3.000000" stroke-linejoin="round" stroke-linecap="round"/>
</svg>
