<svg width="24.379883" height="23.285645" viewBox="0 0 24.3799 23.2856" fill="none" xmlns="http://www.w3.org/2000/svg" xmlns:xlink="http://www.w3.org/1999/xlink">
	<desc>
			Created with Pixso.
	</desc>
	<defs/>
	<path id="Star 6" d="M11.23 0.69L9.04 7.43C8.91 7.84 8.52 8.12 8.09 8.12L1 8.12C0.03 8.12 -0.37 9.36 0.41 9.93L6.15 14.1C6.5 14.36 6.65 14.81 6.51 15.22L4.32 21.97C4.02 22.89 5.07 23.65 5.86 23.09L11.6 18.92C11.95 18.66 12.42 18.66 12.77 18.92L18.51 23.09C19.3 23.65 20.35 22.89 20.05 21.97L17.86 15.22C17.72 14.81 17.87 14.36 18.22 14.1L23.96 9.93C24.74 9.36 24.34 8.12 23.37 8.12L16.28 8.12C15.85 8.12 15.46 7.84 15.33 7.43L13.14 0.69C12.84 -0.24 11.53 -0.24 11.23 0.69Z" fill="#111111" fill-opacity="1.000000" fill-rule="evenodd"/>
</svg>
