<svg width="80.000000" height="80.000000" viewBox="0 0 80 80" fill="none" xmlns="http://www.w3.org/2000/svg" xmlns:xlink="http://www.w3.org/1999/xlink">
	<desc>
			Created with Pixso.
	</desc>
	<defs/>
	<path id="Vector 33" d="M10.29 32.59L26.43 32.59" stroke="#C5358C" stroke-opacity="1.000000" stroke-width="2.972973" stroke-linejoin="round" stroke-linecap="round"/>
	<path id="Vector 35" d="M51.38 56.29L55.78 62.22L66.05 53.33" stroke="#C5358C" stroke-opacity="1.000000" stroke-width="2.972973" stroke-linejoin="round" stroke-linecap="round"/>
	<path id="Vector 34" d="M10.29 44.44L22.03 44.44" stroke="#C5358C" stroke-opacity="1.000000" stroke-width="2.972973" stroke-linejoin="round" stroke-linecap="round"/>
	<path id="Vector 31" d="M35.97 57.77L1.48 57.77L1.48 1.48L58.72 1.48L58.72 35.55" stroke="#C5358C" stroke-opacity="1.000000" stroke-width="2.972973" stroke-linejoin="round"/>
	<path id="Vector 32" d="M20.56 1.48L20.56 16.29L30.1 11.11L38.9 16.29L38.9 1.48" stroke="#C5358C" stroke-opacity="1.000000" stroke-width="2.972973" stroke-linejoin="round"/>
	<path id="Ellipse 20 (Stroke)" d="M57.98 77.03C68.52 77.03 77.06 68.41 77.06 57.77C77.06 47.14 68.52 38.52 57.98 38.52C47.44 38.52 38.9 47.14 38.9 57.77C38.9 68.41 47.44 77.03 57.98 77.03ZM57.98 80C70.14 80 80 70.05 80 57.77C80 45.5 70.14 35.55 57.98 35.55C45.82 35.55 35.97 45.5 35.97 57.77C35.97 70.05 45.82 80 57.98 80Z" fill="#C5358C" fill-opacity="1.000000" fill-rule="evenodd"/>
</svg>
