<svg id="Layer_1" data-name="Layer 1" xmlns="http://www.w3.org/2000/svg" viewBox="0 0 280 300"><path d="M100.23,185.77a23.41,23.41,0,0,1-11.57-4.61c-.57-.44-.9-.58-.86-.7s4.48-6.24,4.65-6.3.33.1.66.32A21.56,21.56,0,0,0,99,177.07a13.46,13.46,0,0,0,6-.12,9.69,9.69,0,0,0,6-5.29,19.26,19.26,0,0,0,1.44-6c.07-.89.06-1-.08-1a.51.51,0,0,0-.31.17A11.29,11.29,0,0,1,108,167a11.87,11.87,0,0,1-4.71.7,18,18,0,0,1-17.15-15.17C86,151.86,86,149.47,86,142v-9.61l4.68,0,4.68,0s.15,4.59.21,9.62c.1,8.45.13,9.2.32,10a8.48,8.48,0,0,0,6.59,6.34,9.31,9.31,0,0,0,3.94-.17,8.72,8.72,0,0,0,5.69-5.59l.34-1,0-9.56,0-9.56,4.76,0c3.7,0,4.74-.08,4.81,0s.13,22.45,0,26.6a77.06,77.06,0,0,1-.64,8.61c-.94,6.36-2.76,10.47-6,13.56a17.63,17.63,0,0,1-9.43,4.37A40.5,40.5,0,0,1,100.23,185.77Zm39.19-18-1.42-.32a34.94,34.94,0,0,1-8.47-3,20.35,20.35,0,0,1-3.46-2.2c0-.11,4.23-5.75,4.6-6.13.17-.17,0,0,1,.53a25.67,25.67,0,0,0,6.72,2.49,18.54,18.54,0,0,0,6,.05c1.68-.45,2.59-1.25,2.59-2.25,0-1.2-1-1.72-6.4-3.25-2.12-.61-4.51-1.35-5.32-1.65-4.78-1.79-7.3-4-8.19-7.14a7.05,7.05,0,0,1-.23-2.25,9.08,9.08,0,0,1,2.85-6.87,13.9,13.9,0,0,1,8.6-4,26.38,26.38,0,0,1,13.21,2.18,18.94,18.94,0,0,1,2.93,1.72l.31.25-2.27,3a35.92,35.92,0,0,1-2.4,3,10.39,10.39,0,0,1-1.43-.46,23.37,23.37,0,0,0-7.12-1.5c-3-.13-4.75.4-5.33,1.6-.49,1,0,1.73,1.65,2.42.52.22,2.66.89,4.76,1.49,5.64,1.61,7.6,2.38,9.63,3.74,3.89,2.59,5.06,6.59,3.28,11.19a8,8,0,0,1-2.15,3.3,14.38,14.38,0,0,1-7.33,3.76,16.11,16.11,0,0,1-3.81.41A9.71,9.71,0,0,1,139.42,167.81Zm-78.37-.15a17.79,17.79,0,0,1-13-7.81,18.13,18.13,0,0,1-3-11.39,17.88,17.88,0,0,1,13.37-16.07c2.07-.53,2.6-.57,8-.62l5.11-.05,0-8.73,0-8.74,4.69,0a37.89,37.89,0,0,1,4.78,0c0,.08,0,4.21.1,9.09.12,10.65-.08,27.78-.35,29.27a18.43,18.43,0,0,1-2.52,6.68,18.78,18.78,0,0,1-5.88,5.82,19.71,19.71,0,0,1-5.09,2.13A22.37,22.37,0,0,1,61.05,167.66Zm3.6-9.57A8.64,8.64,0,0,0,71,152.58c.46-1.33.5-2,.47-6.79l0-4.49H66.53c-5.41,0-5.56,0-7.09.73a8.59,8.59,0,0,0-4.73,5.5,6.83,6.83,0,0,0-.24,2.17,7.46,7.46,0,0,0,.93,3.91,6.07,6.07,0,0,0,1.6,2.17,7.78,7.78,0,0,0,3.3,2.1A9.24,9.24,0,0,0,64.65,158.09Zm110.62,9.57a17.44,17.44,0,0,1-6.48-1.91,17.69,17.69,0,0,1-7.77-7.7,18.34,18.34,0,0,1-1.88-5.71,25.87,25.87,0,0,1,0-5.28,18,18,0,0,1,35.47-.88,23,23,0,0,1,.16,6.11,18,18,0,0,1-8.32,12.78,18.71,18.71,0,0,1-6.66,2.48A25.91,25.91,0,0,1,175.27,167.66Zm4-9.72a8.4,8.4,0,0,0,3.85-2.38,8.48,8.48,0,0,0-.76-12.31,10.93,10.93,0,0,0-3.56-1.74,10.17,10.17,0,0,0-4,0,8.66,8.66,0,0,0-5.37,4.25,6.83,6.83,0,0,0-.91,3.9,7.11,7.11,0,0,0,.24,2.36,8.62,8.62,0,0,0,3.54,4.85,9.08,9.08,0,0,0,3.2,1.29c.12,0,.86,0,1.64,0A6.89,6.89,0,0,0,179.31,157.94Zm19.51,9.15c0-.36-.1-17.42,0-18.76a17.79,17.79,0,0,1,9.83-14.57,18.22,18.22,0,0,1,25.72,11.41c.56,2.08.56,2,.6,12.12,0,5.5.09,9.54,0,9.54-6.65,0-6.75,0-9.66,0-.08,0-.05-3.51-.05-9,0-9.75,0-9.64-.59-11.19a8.84,8.84,0,0,0-5.73-5.06,9.72,9.72,0,0,0-4.26,0,8.58,8.58,0,0,0-6.22,6.13c-.16.52-.18,1.62-.23,9.87l-.06,9.48s-2.57.06-5,.05Z"/></svg>